<?xml version="1.0" encoding="UTF-8"?>
<svg version="1.1" xmlns="http://www.w3.org/2000/svg" width="160" height="160">
<path d="M0 0 C6.12465059 5.71634055 7.41209031 11.41864978 7.9375 19.5625 C7.9091442 23.29128787 6.9538475 26.09803852 5.34375 29.4375 C2.92773636 37.72097533 5.06429916 50.90278167 9.15234375 58.359375 C10.68508628 60.41561087 10.68508628 60.41561087 12.28515625 62.109375 C16.28628359 66.61203641 16.60873069 71.87607518 16.6875 77.6875 C15.81837292 85.5234394 11.86041906 91.36559431 5.84765625 96.2421875 C-6.36234009 104.41162447 -20.80140982 105.77100064 -35.03759766 106.20410156 C-41.05695312 106.45167836 -46.18254702 107.46757879 -51.8046875 109.75 C-58.16132645 112.12631363 -64.86014704 111.96761469 -71.5625 112.0625 C-73.04169922 112.11857422 -73.04169922 112.11857422 -74.55078125 112.17578125 C-82.55193319 112.27065657 -89.19948007 110.43300474 -95.22509766 104.94580078 C-100.86089292 98.90938223 -102.85725392 92.59654307 -102.69140625 84.42578125 C-102.30176862 81.60994643 -101.57133299 79.95337171 -100.1875 77.5 C-96.44066739 70.16521108 -99.13727634 59.6505425 -101.5625 52.125 C-103.35354281 48.60688019 -105.32801416 45.99926346 -108.0078125 43.1328125 C-111.80164938 38.93005907 -110.83245735 32.32981955 -110.70703125 26.97265625 C-110.35623872 21.2521349 -108.47345963 17.62466299 -104.3125 13.6875 C-92.71591277 3.74472161 -79.48665012 0.7269913 -64.625 -0.1875 C-56.65603628 -0.7554654 -49.71168793 -1.69259831 -42.171875 -4.35546875 C-28.48548812 -8.93629496 -11.58056277 -9.48642845 0 0 Z " fill="#22408A" transform="translate(127.3125,27.3125)"/>
<path d="M0 0 C-0.41782961 2.92480729 -0.8208713 4.75452734 -2.58203125 7.16796875 C-4.49134568 10.98133779 -3.97325982 14.05126186 -3.375 18.125 C-3.22212524 19.29349487 -3.22212524 19.29349487 -3.06616211 20.4855957 C-2.73025602 22.99351108 -2.36600763 25.49631646 -2 28 C-1.76422239 29.72003831 -1.52854512 31.44009037 -1.29296875 33.16015625 C-1.05178047 34.83627026 -0.80835382 36.51206397 -0.5625 38.1875 C-0.45276855 38.96432129 -0.34303711 39.74114258 -0.22998047 40.54150391 C0.72698583 46.67859935 1.93247727 52.12480497 6.6875 56.4375 C7.450625 56.953125 8.21375 57.46875 9 58 C8.82421875 60.359375 8.82421875 60.359375 8 63 C5.70703125 64.328125 5.70703125 64.328125 2.8125 65.25 C1.87019531 65.56453125 0.92789063 65.8790625 -0.04296875 66.203125 C-5.44865933 67.65987649 -10.59259378 68.17803979 -16.1875 68.25 C-17.39792969 68.27578125 -18.60835937 68.3015625 -19.85546875 68.328125 C-23 68 -23 68 -24.93359375 66.6015625 C-26 65 -26 65 -25.875 63.125 C-25 61 -25 61 -23.42578125 58.88671875 C-21.53461671 55.05775821 -21.89635786 51.80841199 -22.3125 47.6875 C-22.37373047 46.94693359 -22.43496094 46.20636719 -22.49804688 45.44335938 C-22.65033777 43.62758328 -22.82312066 41.81354599 -23 40 C-29.64409958 39.78567421 -35.53205867 40.48766299 -42 42 C-41.71710528 44.25111973 -41.42335307 46.50087686 -41.125 48.75 C-40.88136719 50.62945312 -40.88136719 50.62945312 -40.6328125 52.546875 C-39.56734927 58.36088423 -37.74387301 60.50451462 -33 64 C-33.0625 66.25 -33.0625 66.25 -34 69 C-41.26569417 74.18978155 -49.06894496 75.35108586 -57.8125 75.3125 C-58.93688477 75.33666992 -58.93688477 75.33666992 -60.08398438 75.36132812 C-65.51520923 75.36618177 -65.51520923 75.36618177 -68.01171875 73.48046875 C-68.50091797 72.74763672 -68.50091797 72.74763672 -69 72 C-67.97962727 69.80227413 -67.0534107 68.05922771 -65.421875 66.25 C-60.94545172 59.1664291 -65.60659101 44.39864942 -66.875 36.4375 C-67.03621338 35.40270508 -67.19742676 34.36791016 -67.36352539 33.30175781 C-68.24085059 28.0879881 -69.10478589 23.53067857 -72 19 C-74.54788853 17.11868431 -74.54788853 17.11868431 -77 16 C-76.9375 13.75 -76.9375 13.75 -76 11 C-66.54489382 4.16013596 -55.38941551 2.90376876 -44 4 C-42 6 -42 6 -41.6875 8.375 C-42 11 -42 11 -43.50390625 12.85546875 C-45.31468271 15.45107261 -45.34637476 16.81013916 -45.25 19.9375 C-45.23453125 20.77152344 -45.2190625 21.60554688 -45.203125 22.46484375 C-44.99671506 25.04099861 -44.55925649 27.47883565 -44 30 C-41.54104382 29.69188262 -39.08291693 29.37871012 -36.625 29.0625 C-35.92632812 28.97548828 -35.22765625 28.88847656 -34.5078125 28.79882812 C-30.63216425 28.33681872 -30.63216425 28.33681872 -27 27 C-26.79468304 21.25112518 -27.02862867 16.44473988 -29 11 C-31.48313064 9.40311361 -31.48313064 9.40311361 -34 9 C-34 7.02 -34 5.04 -34 3 C-24.01902157 -2.44417005 -10.20527551 -7.05802813 0 0 Z " fill="#FDFDFD" transform="translate(114,44)"/>
<path d="M0 0 C8.9723751 7.80596634 8.9723751 7.80596634 9.5 14.24609375 C9.49484375 15.44492187 9.4896875 16.64375 9.484375 17.87890625 C9.49210937 19.66941406 9.49210937 19.66941406 9.5 21.49609375 C9.234375 25.00390625 9.234375 25.00390625 8.21875 28.01171875 C6.24747464 34.00377003 7.35461826 39.92418444 8.484375 46.00390625 C8.64873047 47.01324219 8.64873047 47.01324219 8.81640625 48.04296875 C9.98376751 54.4081596 12.81336422 58.89269024 16.421875 64.25390625 C20.07529738 69.79702986 19.74373891 75.56045276 19.234375 82.00390625 C18.48222145 84.37843753 17.62562726 85.91702786 16.234375 88.00390625 C12.23588731 87.42139276 9.42133662 86.17077347 5.984375 84.06640625 C5.11296875 83.54175781 4.2415625 83.01710938 3.34375 82.4765625 C1.234375 81.00390625 1.234375 81.00390625 0.234375 79.00390625 C0.3375 78.24078125 0.440625 77.47765625 0.546875 76.69140625 C0.44375 75.80453125 0.340625 74.91765625 0.234375 74.00390625 C-1.27315467 72.8568728 -2.78144367 71.71079225 -4.296875 70.57421875 C-8.10733963 66.50026455 -7.85295346 59.68117496 -7.890625 54.37890625 C-7.849375 53.26515625 -7.808125 52.15140625 -7.765625 51.00390625 C-8.425625 51.00390625 -9.085625 51.00390625 -9.765625 51.00390625 C-10.95138689 46.05463922 -11.25162348 41.06651406 -11.578125 36.00390625 C-11.65482422 35.11445312 -11.73152344 34.225 -11.81054688 33.30859375 C-12.22152907 26.67345949 -12.22152907 26.67345949 -9.7734375 23.078125 C-9.11085938 22.39363281 -8.44828125 21.70914063 -7.765625 21.00390625 C-7.6697832 17.8264802 -7.6697832 17.8264802 -8.765625 15.00390625 C-13.9390977 11.55492445 -20.71089168 12.36641199 -26.765625 13.00390625 C-32.71738045 14.32237245 -38.37089779 16.1456021 -43.765625 19.00390625 C-44.03495021 23.65443497 -44.03495021 23.65443497 -42.765625 28.00390625 C-41.940625 28.49890625 -41.115625 28.99390625 -40.265625 29.50390625 C-37.765625 31.00390625 -37.765625 31.00390625 -36.765625 33.00390625 C-36.69566486 34.7109336 -36.68122346 36.42058628 -36.703125 38.12890625 C-36.71214844 39.03898437 -36.72117188 39.9490625 -36.73046875 40.88671875 C-36.74207031 41.58539063 -36.75367188 42.2840625 -36.765625 43.00390625 C-41.62614096 45.59618143 -46.41833633 45.19080178 -51.765625 45.00390625 C-53.11843871 42.29827882 -52.97171862 40.0849697 -53.015625 37.06640625 C-53.04140625 36.00550781 -53.0671875 34.94460937 -53.09375 33.8515625 C-52.71869731 30.59664097 -52.09765073 30.1106449 -49.765625 28.00390625 C-49.5152673 24.37854649 -49.5152673 24.37854649 -49.765625 21.00390625 C-60.86742013 17.59010425 -72.95592972 20.07249502 -83.0625 25.16015625 C-84.6609385 26.05528181 -86.22002992 27.02034574 -87.765625 28.00390625 C-88.8175 27.24078125 -89.869375 26.47765625 -90.953125 25.69140625 C-93.81306765 23.64526842 -96.71581784 21.75985583 -99.765625 20.00390625 C-98.81225908 16.51227947 -97.94634639 15.14274371 -95.03515625 12.90625 C-82.35210646 5.69769176 -70.77051506 2.84798036 -56.27050781 2.50610352 C-49.04145024 2.24415093 -42.92988629 0.59524851 -36.1484375 -1.83984375 C-25.72579692 -5.40231674 -9.34170046 -6.7423855 0 0 Z " fill="#0955D1" transform="translate(122.765625,26.99609375)"/>
<path d="M0 0 C6.12465059 5.71634055 7.41209031 11.41864978 7.9375 19.5625 C7.91363605 22.78299714 7.47313423 24.20977298 6.18359375 27.3515625 C4.35652016 32.01401171 4.34270382 36.23468702 4.5 41.1875 C4.51353516 42.00992188 4.52707031 42.83234375 4.54101562 43.6796875 C4.57594984 45.68258221 4.62973943 47.68513356 4.6875 49.6875 C4.3575 49.6875 4.0275 49.6875 3.6875 49.6875 C0.69869962 33.43589792 0.69869962 33.43589792 2.6796875 27.9296875 C4.74264532 21.29304025 4.97246381 13.56581892 2.125 7.1875 C1.320625 6.3625 0.51625 5.5375 -0.3125 4.6875 C-1.04146484 3.89085937 -1.04146484 3.89085937 -1.78515625 3.078125 C-8.05945123 -3.15167144 -15.39740414 -3.37639556 -23.875 -3.6875 C-32.70992141 -3.57125103 -42.63803625 -1.92440876 -50.72265625 1.796875 C-54.65781801 3.1501433 -58.55464449 2.98486754 -62.6875 3.0625 C-77.05460547 3.60325356 -90.75942762 6.63322298 -102.3125 15.6875 C-106.18940332 20.95906491 -106.92545929 24.92828601 -106.75 31.375 C-106.75708984 32.12072266 -106.76417969 32.86644531 -106.77148438 33.63476562 C-106.72191591 37.90909274 -106.38131822 40.60240158 -103.3125 43.6875 C-103.6425 44.3475 -103.9725 45.0075 -104.3125 45.6875 C-110.01488633 39.43926407 -110.3125 32.07426947 -110.3125 23.875 C-107.85167043 16.03110576 -102.47578953 11.36783242 -95.51953125 7.2890625 C-84.1908509 1.63162165 -73.45821104 0.21844534 -60.97265625 -0.57543945 C-54.20475562 -1.03830782 -48.5735109 -2.09457353 -42.171875 -4.35546875 C-28.48548812 -8.93629496 -11.58056277 -9.48642845 0 0 Z " fill="#93A2BA" transform="translate(127.3125,27.3125)"/>
<path d="M0 0 C2.9453125 2.3359375 2.9453125 2.3359375 5 5 C5 8.125 5 8.125 4 11 C3.23562622 11.69379761 3.23562622 11.69379761 2.45581055 12.40161133 C0.54110071 14.50384263 0.65051955 15.64247088 0.70703125 18.44921875 C0.71669922 19.29677734 0.72636719 20.14433594 0.73632812 21.01757812 C0.76146484 21.89865234 0.78660156 22.77972656 0.8125 23.6875 C0.82603516 24.58017578 0.83957031 25.47285156 0.85351562 26.39257812 C0.88885921 28.59566166 0.93819507 30.79752582 1 33 C0.67 33 0.34 33 0 33 C-0.44572759 30.12686403 -0.8570128 27.25541754 -1.25 24.375 C-1.37890625 23.56675781 -1.5078125 22.75851563 -1.640625 21.92578125 C-2.22073563 17.46618076 -2.35743521 15.61841964 -0.03125 11.59375 C0.6390625 10.7378125 1.309375 9.881875 2 9 C1.87754191 6.20438833 1.87754191 6.20438833 1 4 C-8.21377001 0.92874333 -19.70209488 3.03998459 -28.34375 7.1015625 C-28.8903125 7.39804687 -29.436875 7.69453125 -30 8 C-30 9.98 -30 11.96 -30 14 C-29.401875 14.165 -28.80375 14.33 -28.1875 14.5 C-24.75301741 16.85507378 -23.9534035 20.04821159 -23 24 C-22.62874931 26.86966752 -22.69736931 29.07456996 -23 32 C-28.60995843 35.73997229 -34.47300069 35.11406407 -41 35 C-43.48967762 30.33185446 -43.78194016 25.1708946 -43 20 C-42.04189255 18.63625226 -41.04481377 17.29851529 -40 16 C-39.66574265 13.37374861 -39.66574265 13.37374861 -40 11 C-42.23471625 8.76528375 -46.76818312 9.69281734 -49.77856445 9.67651367 C-57.62472329 9.80705154 -67.20059536 11.28364173 -73 17 C-73 18.32 -73 19.64 -73 21 C-72.071875 21.53625 -71.14375 22.0725 -70.1875 22.625 C-66.20416302 25.59297657 -65.60536218 27.93167923 -64.25 32.5625 C-63.95994367 35.39054922 -64.50643889 36.62787353 -66 39 C-66.20302734 37.80503906 -66.20302734 37.80503906 -66.41015625 36.5859375 C-67.79085198 29.78993816 -68.96945731 26.37375279 -74.58203125 22.29296875 C-76 21 -76 21 -76.4375 17.9375 C-73.68688303 12.31667402 -68.12180617 10.22168315 -62.4375 8.1875 C-55.58282281 6.31125865 -46.42459525 5.50823794 -39.61328125 7.8046875 C-38 9 -38 9 -37.0625 12.4375 C-37.041875 13.613125 -37.02125 14.78875 -37 16 C-37.48984375 16.42023437 -37.9796875 16.84046875 -38.484375 17.2734375 C-40.89014059 20.01402614 -40.28512611 22.640418 -40.1875 26.1875 C-40.125625 28.435625 -40.06375 30.68375 -40 33 C-33.07 32.01 -33.07 32.01 -26 31 C-25.95875 29.411875 -25.9175 27.82375 -25.875 26.1875 C-25.85179687 25.29417969 -25.82859375 24.40085937 -25.8046875 23.48046875 C-25.81714173 20.74597286 -25.81714173 20.74597286 -28 18 C-29.32520503 17.31731862 -30.65812182 16.6492959 -32 16 C-33.4783226 13.04335481 -33.06032783 10.25770263 -33 7 C-23.28231898 0.73749445 -11.49158516 -2.01699878 0 0 Z " fill="#7891BB" transform="translate(111,39)"/>
<path d="M0 0 C2.9453125 2.3359375 2.9453125 2.3359375 5 5 C5 8.125 5 8.125 4 11 C3.23562622 11.69379761 3.23562622 11.69379761 2.45581055 12.40161133 C0.54110071 14.50384263 0.65051955 15.64247088 0.70703125 18.44921875 C0.71669922 19.29677734 0.72636719 20.14433594 0.73632812 21.01757812 C0.76146484 21.89865234 0.78660156 22.77972656 0.8125 23.6875 C0.82603516 24.58017578 0.83957031 25.47285156 0.85351562 26.39257812 C0.88885921 28.59566166 0.93819507 30.79752582 1 33 C0.67 33 0.34 33 0 33 C-0.44572759 30.12686403 -0.8570128 27.25541754 -1.25 24.375 C-1.37890625 23.56675781 -1.5078125 22.75851563 -1.640625 21.92578125 C-2.22073563 17.46618076 -2.35743521 15.61841964 -0.03125 11.59375 C0.97421875 10.30984375 0.97421875 10.30984375 2 9 C1.87754191 6.20438833 1.87754191 6.20438833 1 4 C-8.21377001 0.92874333 -19.70209488 3.03998459 -28.34375 7.1015625 C-28.8903125 7.39804687 -29.436875 7.69453125 -30 8 C-30 10.64 -30 13.28 -30 16 C-30.66 16 -31.32 16 -32 16 C-33.4783226 13.04335481 -33.06032783 10.25770263 -33 7 C-23.28231898 0.73749445 -11.49158516 -2.01699878 0 0 Z " fill="#7991B8" transform="translate(111,39)"/>
<path d="M0 0 C1.953125 0.21484375 1.953125 0.21484375 4 1 C6.69739661 6.49112881 7.62976752 10.91224726 7 17 C1.39004157 20.73997229 -4.47300069 20.11406407 -11 20 C-13.59227518 15.13948404 -13.18689553 10.34728867 -13 5 C-12.34 5 -11.68 5 -11 5 C-10.67 9.29 -10.34 13.58 -10 18 C-3.07 17.01 -3.07 17.01 4 16 C4.04125 14.411875 4.0825 12.82375 4.125 11.1875 C4.14820312 10.29417969 4.17140625 9.40085937 4.1953125 8.48046875 C4.18285827 5.74597286 4.18285827 5.74597286 2 3 C1.01 2.34 0.02 1.68 -1 1 C-0.67 0.67 -0.34 0.34 0 0 Z " fill="#5B75A3" transform="translate(81,54)"/>
<path d="M0 0 C3.3297116 3.3297116 2.95625154 7.32189883 3.25 11.875 C3.22613605 15.09549714 2.78563423 16.52227298 1.49609375 19.6640625 C-0.33097984 24.32651171 -0.34479618 28.54718702 -0.1875 33.5 C-0.17396484 34.32242188 -0.16042969 35.14484375 -0.14648438 35.9921875 C-0.11155016 37.99508221 -0.05776057 39.99763356 0 42 C-0.33 42 -0.66 42 -1 42 C-3.99797335 25.69851993 -3.99797335 25.69851993 -2.0234375 20.359375 C-0.76807888 16.23873219 -0.54918466 12.40703963 -0.375 8.125 C-0.33632812 7.34125 -0.29765625 6.5575 -0.2578125 5.75 C-0.16433378 3.83368633 -0.08111505 1.91687681 0 0 Z " fill="#6C7A90" transform="translate(132,35)"/>
<path d="M0 0 C1.640625 1.08203125 1.640625 1.08203125 3 3 C3.58203125 6.28515625 3.58203125 6.28515625 3.8125 10.0625 C3.90144531 11.31160156 3.99039063 12.56070313 4.08203125 13.84765625 C4 17 4 17 2 19 C1.34 13.72 0.68 8.44 0 3 C-4.95 3.33 -9.9 3.66 -15 4 C-15 6.97 -15 9.94 -15 13 C-15.66 13 -16.32 13 -17 13 C-17 9.7 -17 6.4 -17 3 C-5.73791822 -0.70260223 -5.73791822 -0.70260223 0 0 Z " fill="#485679" transform="translate(89,83)"/>
<path d="M0 0 C-2.69648689 2.69648689 -5.66611962 4.14784424 -9 6 C-9 7.32 -9 8.64 -9 10 C-8.071875 10.53625 -7.14375 11.0725 -6.1875 11.625 C-2.20416302 14.59297657 -1.60536218 16.93167923 -0.25 21.5625 C0.04005633 24.39054922 -0.50643889 25.62787353 -2 28 C-2.13535156 27.20335938 -2.27070312 26.40671875 -2.41015625 25.5859375 C-3.7899845 18.79420801 -4.96179659 15.3595842 -10.58984375 11.296875 C-12 10 -12 10 -12.3125 6.875 C-9.89632053 1.5824164 -5.75264743 -0.67678205 0 0 Z " fill="#7385AB" transform="translate(47,50)"/>
<path d="M0 0 C0.66 0.99 1.32 1.98 2 3 C1.01 4.485 1.01 4.485 0 6 C-0.22192711 8.85623074 -0.32448385 11.58294691 -0.3125 14.4375 C-0.32861328 15.20126953 -0.34472656 15.96503906 -0.36132812 16.75195312 C-0.3644348 20.32152208 -0.34775588 22.41981088 1.51953125 25.53515625 C2.00808594 26.01855469 2.49664063 26.50195312 3 27 C2.67 27.66 2.34 28.32 2 29 C-3.31781406 23.17314875 -4 16.45633052 -4 8.73828125 C-3.61990271 5.08776354 -2.47149271 2.68640512 0 0 Z " fill="#65759D" transform="translate(21,44)"/>
<path d="M0 0 C0.66 0 1.32 0 2 0 C2.50790159 3.51973999 3.00488523 7.04094042 3.5 10.5625 C3.64308594 11.55314453 3.78617188 12.54378906 3.93359375 13.56445312 C4.65920623 18.76467588 5.17673411 23.74952418 5 29 C4.34 29.33 3.68 29.66 3 30 C2.94465088 29.36908447 2.88930176 28.73816895 2.83227539 28.08813477 C2.5803188 25.2458232 2.32150231 22.40417781 2.0625 19.5625 C1.97548828 18.56927734 1.88847656 17.57605469 1.79882812 16.55273438 C1.71181641 15.60849609 1.62480469 14.66425781 1.53515625 13.69140625 C1.456604 12.81685791 1.37805176 11.94230957 1.29711914 11.04125977 C1.20914952 9.00985544 1.20914952 9.00985544 0 8 C-0.14115161 5.32941149 -0.04247107 2.67567762 0 0 Z " fill="#3F4960" transform="translate(46,79)"/>
<path d="M0 0 C0.33 0 0.66 0 1 0 C1 1.65 1 3.3 1 5 C1.66 5 2.32 5 3 5 C3.08636719 6.09699219 3.17273438 7.19398437 3.26171875 8.32421875 C3.40248072 9.77875906 3.54447295 11.23318067 3.6875 12.6875 C3.74099609 13.40873047 3.79449219 14.12996094 3.84960938 14.87304688 C4.40648977 20.17551669 5.81225413 22.44536217 10 26 C10.33 26.66 10.66 27.32 11 28 C7.01730809 26.70831614 5.14668635 25.60503306 3 22 C2.3155057 19.34652827 1.76415823 16.81520478 1.3125 14.125 C1.18294922 13.43019531 1.05339844 12.73539063 0.91992188 12.01953125 C0.19896468 7.96843847 -0.13531837 4.11110096 0 0 Z " fill="#445E88" transform="translate(112,73)"/>
<path d="M0 0 C3.80625982 1.49531636 5.77940501 3.58980056 8 7 C8.25 9.8125 8.25 9.8125 8 12 C7.443125 11.29875 6.88625 10.5975 6.3125 9.875 C3.90875268 6.88655739 1.46189568 3.94059762 -1 1 C-0.67 0.67 -0.34 0.34 0 0 Z " fill="#8A9DBA" transform="translate(124,26)"/>
<path d="M0 0 C2.475 0.495 2.475 0.495 5 1 C5.55978184 2.57701982 6.09719401 4.16199242 6.625 5.75 C6.92664062 6.63171875 7.22828125 7.5134375 7.5390625 8.421875 C8.07333427 11.41017471 7.62433191 12.49923002 6 15 C5.81824219 14.16855469 5.63648438 13.33710937 5.44921875 12.48046875 C5.07216797 10.85044922 5.07216797 10.85044922 4.6875 9.1875 C4.32205078 7.56908203 4.32205078 7.56908203 3.94921875 5.91796875 C3.01798408 3.0552844 2.31239465 1.84602934 0 0 Z " fill="#627094" transform="translate(39,63)"/>
<path d="M0 0 C0 0.66 0 1.32 0 2 C-1.98 2.99 -1.98 2.99 -4 4 C-4 6.64 -4 9.28 -4 12 C-4.66 12 -5.32 12 -6 12 C-7.55938978 8.88122044 -7.3607834 6.42744229 -7 3 C-4.60259082 1.04421883 -3.12413392 0 0 0 Z " fill="#869ABC" transform="translate(85,43)"/>
<path d="M0 0 C-0.99 0.33 -1.98 0.66 -3 1 C-3 1.66 -3 2.32 -3 3 C-5.97 3 -8.94 3 -12 3 C-11.67 2.34 -11.34 1.68 -11 1 C-7.318488 -0.05186057 -3.80944893 -0.08859184 0 0 Z " fill="#9AA4B4" transform="translate(99,21)"/>
<path d="M0 0 C0.66 0.33 1.32 0.66 2 1 C1.071875 1.598125 0.14375 2.19625 -0.8125 2.8125 C-3.20254718 4.45272845 -5.08470253 5.8718917 -7 8 C-6.875 5.6875 -6.875 5.6875 -6 3 C-3.0625 1.125 -3.0625 1.125 0 0 Z " fill="#8493AE" transform="translate(29,38)"/>
<path d="M0 0 C0.66 0 1.32 0 2 0 C2.33 2.97 2.66 5.94 3 9 C2.01 8.67 1.02 8.34 0 8 C0 5.36 0 2.72 0 0 Z " fill="#596787" transform="translate(46,79)"/>
<path d="M0 0 C0.66 0 1.32 0 2 0 C1.50769231 5.53846154 1.50769231 5.53846154 -1.0625 7.875 C-2.0215625 8.431875 -2.0215625 8.431875 -3 9 C-2.30058404 5.85262818 -1.23921302 2.97411124 0 0 Z " fill="#728FBD" transform="translate(114,44)"/>
</svg>
